<svg id="Calque_1" data-name="Calque 1" xmlns="http://www.w3.org/2000/svg" xmlns:xlink="http://www.w3.org/1999/xlink" viewBox="0 0 92.5 148.21"><defs><style>.cls-1{fill:#f04b4b;}.cls-2{clip-path:url(#clip-path);}.cls-3{fill:#e33e3e;}.cls-4{fill:#c8df91;}.cls-5{fill:#a6d065;}.cls-6{fill:#b25a27;}.cls-7{fill:#f38081;}</style><clipPath id="clip-path"><path id="_Masque_" data-name="&lt;Masque&gt;" class="cls-1" d="M88.75,62.07S85.33,25.54,62.21,27.41c-.75,0-11.58,2.91-16,2.91s-15.22-2.91-16-2.91C7.13,25.54,3.71,62.07,3.71,62.07c0,23.49,42.52,85,42.52,85s42.52-61.55,42.52-85Z"/></clipPath></defs><title>Plan de travail 1</title><path id="_Masque_2" data-name="&lt;Masque&gt;" class="cls-1" d="M88.75,62.07S85.33,25.54,62.21,27.41c-.75,0-11.58,2.91-16,2.91s-15.22-2.91-16-2.91C7.13,25.54,3.71,62.07,3.71,62.07c0,23.49,42.52,85,42.52,85s42.52-61.55,42.52-85Z"/><g class="cls-2"><path id="_Tracé_" data-name="&lt;Tracé&gt;" class="cls-3" d="M52.68,28.5s-6.62,7.78-4.19,7.78,8.94-.79,4.19,2c-3.36,1.64-7.34,3.5-15-.29C33.52,41,22,46.14,23.84,73.24c0,7.29,7.57,50.1,41.43,44.55-7.08,11.65-5.14,33.78-5.14,33.78s-43.66,9.67-45.66-13.67S-28.2,44.24-11.2,34.57s20.33-19,30.33-14.49S56.23,25.1,52.68,28.5Z"/></g><path class="cls-4" d="M92.36,4.2S90,20.74,77.49,25.56c-11.94,4.6-22.59-7.85-27-6.87a1.76,1.76,0,0,0-.55.22h0c.15-.44,4.94-14.71,17.24-15.65C79.71,2.3,86.51,8,92.36,4.2Z"/><path class="cls-5" d="M92.36,4.2s-7.59,9.25-18.27,9.25c-9.39,0-20.92,4.22-23.56,5.24l-.55.22h0c.15-.44,4.94-14.71,17.24-15.65C79.71,2.3,86.51,8,92.36,4.2Z"/><path class="cls-6" d="M52.72,18.7l-6.49,9.86a53,53,0,0,1,1.18,6.55c.15,1.27.32,3.59.37,4.93a16.94,16.94,0,0,1-1.85.17A10.71,10.71,0,0,1,44,40.09c0-1.35-.06-3.71-.22-5A51.45,51.45,0,0,0,39.06,19a1.78,1.78,0,0,1,3.15-1.67,47.39,47.39,0,0,1,2.73,6.68l4.81-7.3a1.78,1.78,0,1,1,3,1.95Z"/><ellipse class="cls-7" cx="74.52" cy="50.68" rx="5.53" ry="8.54" transform="translate(-4.65 7.62) rotate(-5.68)"/></svg>